<svg width="64" height="48" viewBox="0 0 64 48" fill="none" xmlns="http://www.w3.org/2000/svg">
<rect width="64" height="48" rx="24" fill="white"/>
<path d="M26.4283 33.5C25.8894 33.5 25.4333 33.3158 25.06 32.9474C24.6867 32.5789 24.5 32.1289 24.5 31.5971V19.6134C24.5 19.0817 24.6867 18.6316 25.06 18.2632C25.4333 17.8947 25.8894 17.7105 26.4283 17.7105H28.5V17.4474C28.5 16.357 28.8904 15.4265 29.6712 14.6558C30.4522 13.8853 31.3951 13.5 32.5 13.5C33.6049 13.5 34.5478 13.8853 35.3288 14.6558C36.1096 15.4265 36.5 16.357 36.5 17.4474V17.7105H38.5717C39.1106 17.7105 39.5667 17.8947 39.94 18.2632C40.3133 18.6316 40.5 19.0817 40.5 19.6134V31.5971C40.5 32.1289 40.3133 32.5789 39.94 32.9474C39.5667 33.3158 39.1106 33.5 38.5717 33.5H26.4283ZM26.4283 31.9211H38.5717C38.6539 31.9211 38.7291 31.8873 38.7973 31.8197C38.8658 31.7524 38.9 31.6782 38.9 31.5971V19.6134C38.9 19.5324 38.8658 19.4582 38.7973 19.3908C38.7291 19.3232 38.6539 19.2895 38.5717 19.2895H36.5V21.6579C36.5 21.8819 36.4234 22.0695 36.2701 22.2205C36.1171 22.3718 35.927 22.4474 35.7 22.4474C35.473 22.4474 35.2829 22.3718 35.1299 22.2205C34.9766 22.0695 34.9 21.8819 34.9 21.6579V19.2895H30.1V21.6579C30.1 21.8819 30.0234 22.0695 29.8701 22.2205C29.7171 22.3718 29.527 22.4474 29.3 22.4474C29.073 22.4474 28.8829 22.3718 28.7299 22.2205C28.5766 22.0695 28.5 21.8819 28.5 21.6579V19.2895H26.4283C26.3461 19.2895 26.2709 19.3232 26.2027 19.3908C26.1342 19.4582 26.1 19.5324 26.1 19.6134V31.5971C26.1 31.6782 26.1342 31.7524 26.2027 31.8197C26.2709 31.8873 26.3461 31.9211 26.4283 31.9211ZM30.1 17.7105H34.9V17.4474C34.9 16.7875 34.6672 16.2278 34.2016 15.7682C33.736 15.3087 33.1688 15.0789 32.5 15.0789C31.8312 15.0789 31.264 15.3087 30.7984 15.7682C30.3328 16.2278 30.1 16.7875 30.1 17.4474V17.7105Z" fill="#9856EF"/>
</svg>
