<svg width="64" height="48" viewBox="0 0 64 48" fill="none" xmlns="http://www.w3.org/2000/svg">
<rect width="64" height="48" rx="24" fill="white"/>
<path d="M32 24.0999C30.7167 24.0999 29.6181 23.6545 28.7043 22.7635C27.7903 21.8724 27.3333 20.8012 27.3333 19.55C27.3333 18.2987 27.7903 17.2276 28.7043 16.3367C29.6181 15.4456 30.7167 15 32 15C33.2833 15 34.3819 15.4456 35.2957 16.3367C36.2097 17.2276 36.6667 18.2987 36.6667 19.55C36.6667 20.8012 36.2097 21.8724 35.2957 22.7635C34.3819 23.6545 33.2833 24.0999 32 24.0999ZM22 32.025V31.1098C22 30.4732 22.1773 29.8837 22.532 29.3412C22.8867 28.7986 23.3607 28.3816 23.954 28.0899C25.2718 27.4601 26.6012 26.9876 27.9423 26.6726C29.2834 26.3576 30.636 26.2001 32 26.2001C33.364 26.2001 34.7166 26.3576 36.0577 26.6726C37.3988 26.9876 38.7282 27.4601 40.046 28.0899C40.6393 28.3816 41.1133 28.7986 41.468 29.3412C41.8227 29.8837 42 30.4732 42 31.1098V32.025C42 32.5732 41.803 33.0394 41.409 33.4238C41.015 33.8079 40.5368 34 39.9743 34H24.0257C23.4632 34 22.985 33.8079 22.591 33.4238C22.197 33.0394 22 32.5732 22 32.025ZM24 32.05H40V31.1098C40 30.8466 39.9218 30.6028 39.7653 30.3786C39.6089 30.1545 39.3966 29.9717 39.1283 29.83C37.9794 29.2783 36.8081 28.8604 35.6143 28.5761C34.4203 28.2921 33.2156 28.15 32 28.15C30.7844 28.15 29.5797 28.2921 28.3857 28.5761C27.1919 28.8604 26.0206 29.2783 24.8717 29.83C24.6034 29.9717 24.3911 30.1545 24.2347 30.3786C24.0782 30.6028 24 30.8466 24 31.1098V32.05ZM32 22.1499C32.7333 22.1499 33.3611 21.8954 33.8833 21.3862C34.4056 20.877 34.6667 20.265 34.6667 19.55C34.6667 18.835 34.4056 18.2229 33.8833 17.7137C33.3611 17.2046 32.7333 16.95 32 16.95C31.2667 16.95 30.6389 17.2046 30.1167 17.7137C29.5944 18.2229 29.3333 18.835 29.3333 19.55C29.3333 20.265 29.5944 20.877 30.1167 21.3862C30.6389 21.8954 31.2667 22.1499 32 22.1499Z" fill="#9856EF"/>
</svg>
