<svg width="64" height="48" viewBox="0 0 64 48" fill="none" xmlns="http://www.w3.org/2000/svg">
<rect width="64" height="48" rx="24" fill="white"/>
<path d="M31.4884 29.4108C31.7889 29.4108 32.0428 29.3071 32.25 29.0997C32.4572 28.8922 32.5608 28.6381 32.5608 28.3374C32.5608 28.0368 32.457 27.783 32.2495 27.5758C32.0419 27.3688 31.7879 27.2653 31.4874 27.2653C31.1868 27.2653 30.933 27.369 30.7258 27.5766C30.5186 27.7841 30.415 28.0382 30.415 28.3387C30.415 28.6392 30.5188 28.8931 30.7263 29.1003C30.9339 29.3073 31.1879 29.4108 31.4884 29.4108ZM31.5018 33.5C30.1187 33.5 28.8186 33.2375 27.6016 32.7126C26.3846 32.1877 25.326 31.4754 24.4258 30.5755C23.5256 29.6757 22.8129 28.6175 22.2876 27.4011C21.7625 26.1846 21.5 24.8848 21.5 23.5018C21.5 22.1187 21.7625 20.8186 22.2874 19.6016C22.8123 18.3846 23.5246 17.326 24.4245 16.4258C25.3243 15.5256 26.3825 14.8129 27.5989 14.2876C28.8154 13.7625 30.1152 13.5 31.4982 13.5C32.8813 13.5 34.1814 13.7625 35.3984 14.2874C36.6154 14.8123 37.674 15.5246 38.5742 16.4245C39.4744 17.3243 40.1871 18.3825 40.7124 19.5989C41.2375 20.8154 41.5 22.1152 41.5 23.4982C41.5 24.8813 41.2375 26.1814 40.7126 27.3984C40.1877 28.6154 39.4754 29.674 38.5755 30.5742C37.6757 31.4744 36.6175 32.1871 35.4011 32.7124C34.1846 33.2375 32.8848 33.5 31.5018 33.5ZM31.5 31.9211C33.8509 31.9211 35.8421 31.1053 37.4737 29.4737C39.1053 27.8421 39.9211 25.8509 39.9211 23.5C39.9211 21.1491 39.1053 19.1579 37.4737 17.5263C35.8421 15.8947 33.8509 15.0789 31.5 15.0789C29.1491 15.0789 27.1579 15.8947 25.5263 17.5263C23.8947 19.1579 23.0789 21.1491 23.0789 23.5C23.0789 25.8509 23.8947 27.8421 25.5263 29.4737C27.1579 31.1053 29.1491 31.9211 31.5 31.9211ZM31.5853 18.9939C32.0709 18.9939 32.4911 19.1468 32.8461 19.4526C33.2011 19.7584 33.3787 20.1406 33.3787 20.5992C33.3787 20.9852 33.2653 21.3306 33.0384 21.6355C32.8118 21.9406 32.5526 22.2247 32.2611 22.4879C31.8789 22.8268 31.5425 23.1997 31.2518 23.6066C30.9611 24.0132 30.8057 24.4662 30.7855 24.9655C30.7787 25.1573 30.8461 25.3179 30.9879 25.4474C31.1296 25.5768 31.2949 25.6416 31.4837 25.6416C31.6861 25.6416 31.8575 25.5741 31.9979 25.4392C32.1382 25.3043 32.228 25.139 32.2671 24.9434C32.3373 24.5817 32.4868 24.2595 32.7155 23.9768C32.9443 23.694 33.1921 23.4252 33.4589 23.1703C33.8426 22.7962 34.1775 22.3885 34.4634 21.9471C34.7496 21.5055 34.8926 21.0131 34.8926 20.4697C34.8926 19.6357 34.564 18.9504 33.9068 18.4139C33.2497 17.8776 32.4825 17.6095 31.6053 17.6095C30.9791 17.6095 30.3887 17.7481 29.8339 18.0253C29.2794 18.3026 28.8475 18.7072 28.5384 19.2389C28.4426 19.4023 28.4119 19.5741 28.4463 19.7545C28.4805 19.935 28.5731 20.072 28.7239 20.1655C28.9161 20.2724 29.1133 20.3029 29.3158 20.2571C29.5182 20.2111 29.6903 20.0958 29.8318 19.9111C30.0452 19.6344 30.3033 19.4124 30.6063 19.245C30.9093 19.0776 31.2356 18.9939 31.5853 18.9939Z" fill="#9856EF"/>
</svg>
